<?xml version="1.0" standalone="no"?>
<!DOCTYPE svg PUBLIC "-//W3C//DTD SVG 1.1//EN" "http://www.w3.org/Graphics/SVG/1.1/DTD/svg11.dtd" >
<svg xmlns="http://www.w3.org/2000/svg">
<metadata>
Created by FontForge 20120731 at Wed Jun 17 17:52:10 2015
 By Ads
</metadata>
<defs>
<font id="iconfont" horiz-adv-x="1024" >
  <font-face 
    font-family="iconfont"
    font-weight="500"
    font-stretch="normal"
    units-per-em="1024"
    panose-1="2 0 6 3 0 0 0 0 0 0"
    ascent="812"
    descent="-212"
    x-height="792"
    bbox="0 -217 1112.91 812"
    underline-thickness="50"
    underline-position="-100"
    unicode-range="U+0078-E632"
  />
<missing-glyph horiz-adv-x="374" 
d="M34 0v682h272v-682h-272zM68 34h204v614h-204v-614z" />
    <glyph glyph-name=".notdef" horiz-adv-x="374" 
d="M34 0v682h272v-682h-272zM68 34h204v614h-204v-614z" />
    <glyph glyph-name=".null" horiz-adv-x="0" 
 />
    <glyph glyph-name="nonmarkingreturn" horiz-adv-x="341" 
 />
    <glyph glyph-name="x" unicode="x" horiz-adv-x="1001" 
d="M281 543q-27 -1 -53 -1h-83q-18 0 -36.5 -6t-32.5 -18.5t-23 -32t-9 -45.5v-76h912v41q0 16 -0.5 30t-0.5 18q0 13 -5 29t-17 29.5t-31.5 22.5t-49.5 9h-133v-97h-438v97zM955 310v-52q0 -23 0.5 -52t0.5 -58t-10.5 -47.5t-26 -30t-33 -16t-31.5 -4.5q-14 -1 -29.5 -0.5
t-29.5 0.5h-32l-45 128h-439l-44 -128h-29h-34q-20 0 -45 1q-25 0 -41 9.5t-25.5 23t-13.5 29.5t-4 30v167h911zM163 247q-12 0 -21 -8.5t-9 -21.5t9 -21.5t21 -8.5q13 0 22 8.5t9 21.5t-9 21.5t-22 8.5zM316 123q-8 -26 -14 -48q-5 -19 -10.5 -37t-7.5 -25t-3 -15t1 -14.5
t9.5 -10.5t21.5 -4h37h67h81h80h64h36q23 0 34 12t2 38q-5 13 -9.5 30.5t-9.5 34.5q-5 19 -11 39h-368zM336 498v228q0 11 2.5 23t10 21.5t20.5 15.5t34 6h188q31 0 51.5 -14.5t20.5 -52.5v-227h-327z" />
    <glyph glyph-name="uniE600" unicode="&#xe600;" 
d="M884 117q-4 6 -12 17.5t-27 44t-34 64t-26.5 71.5t-11.5 71q0 76 -22 133t-55 88.5t-76 47.5v14q0 38 -26 64t-63.5 26t-63.5 -26t-26 -64v-15q-18 -13 -11 -33q3 -12 14 -17.5t23 -1.5q25 8 53 8h20q81 0 127 -59.5t46 -163.5q0 -114 103 -275q-59 -27 -135 -49
t-151 -22q-128 0 -285 71q103 160 103 275q0 21 2 41t6 38.5t10.5 34.5t14.5 30q4 7 4 14.5t-4 14.5t-11 11q-8 4 -15.5 4.5t-14.5 -3.5t-11 -11q-41 -70 -41 -174q0 -32 -11.5 -72t-26.5 -71t-34 -63.5t-27 -44.5l-12 -18q-8 -11 -5 -24.5t15 -19.5q12 -7 33 -17t77 -30.5
t108 -31.5q6 -19 15.5 -35t21.5 -28.5t26 -22t30 -14t32 -4.5q28 0 53 13t44 36.5t29 54.5q120 26 218 79q6 3 10 8t5 11q1 3 1 6.5t-0.5 6.5t-2 6t-3.5 6zM520 668h-4h-6q-2 0 -5 -0.5t-4 -0.5v1q0 9 4 15.5t10.5 10.5t14.5 4q13 0 21.5 -8.5t8.5 -21.5h-6h-7h-7h-20z
M530 -50q-31 0 -54 33q30 -3 54.5 -3t54.5 3q-4 -5 -8 -9.5t-8 -8.5t-8.5 -6.5t-9.5 -4.5t-10 -3t-11 -1z" />
    <glyph glyph-name="uniE601" unicode="&#xe601;" 
d="M512 746q-91 0 -173.5 -35t-142 -95t-95 -142.5t-35.5 -173t35.5 -173t95 -142t142 -95t173.5 -35.5t173.5 35.5t142 95t95 142t35.5 173t-35.5 173t-95 142.5t-142 95t-173.5 35zM738 64q0 89 -54 153t-134 80q31 12 51 40l1 -1h1q25 32 25 73q0 50 -35.5 85.5
t-84.5 35.5q-42 0 -74.5 -26t-42.5 -67q-4 -15 -4 -31q0 -37 20.5 -67t54.5 -43q-77 -16 -126.5 -79.5t-49.5 -151.5h-45q0 53 16 101t44.5 85.5t67.5 61.5q-29 44 -29 96q0 70 49 119.5t118.5 49.5t119 -49.5t49.5 -119.5q0 -17 -3.5 -34t-10 -32t-15.5 -28q62 -38 99 -104
t37 -147h-45z" />
    <glyph glyph-name="uniE602" unicode="&#xe602;" 
d="M951 793h-878q-18 0 -33.5 -8.5t-24 -24t-8.5 -33.5v-878q0 -27 19.5 -46.5t46.5 -19.5h878q27 0 46.5 19.5t19.5 46.5v878q0 8 -1.5 15.5t-5 14t-8 12t-10 10t-12 8t-14 5t-15.5 1.5zM638 206v-231h-253l1 230h-164l290 281l295 -278zM825 508h-626v93h626v-93z" />
    <glyph glyph-name="uniE603" unicode="&#xe603;" 
d="M70 556h883q29 0 49.5 20.5t20.5 49t-20.5 49t-49.5 20.5h-883q-29 0 -49.5 -20.5t-20.5 -49t20.5 -49t49.5 -20.5zM953 370h-883q-29 0 -49.5 -20.5t-20.5 -49.5q0 -19 9.5 -35t25.5 -25.5t35 -9.5h883q29 0 49.5 20.5t20.5 49.5t-20.5 49.5t-49.5 20.5zM953 44h-883
q-29 0 -49.5 -20.5t-20.5 -49t20.5 -49t49.5 -20.5h883q29 0 49.5 20.5t20.5 49t-20.5 49t-49.5 20.5z" />
    <glyph glyph-name="uniE604" unicode="&#xe604;" 
d="M512.5 744q-72.5 0 -140.5 -22.5t-123 -63.5t-96 -96t-63.5 -123t-22.5 -140q0 -91 35 -173.5t94.5 -142t142.5 -95t173.5 -35.5t173 35.5t142 95t95 142t35.5 173.5q0 72 -22.5 140t-64 123t-96 96t-122.5 63.5t-140.5 22.5zM512 -44q-93 0 -172 46t-125 125t-46 172
t46 172t125 125t172 46q70 0 133.5 -27.5t109.5 -73.5t73 -109.5t27 -133t-27 -133t-73 -109.5t-109.5 -73t-133.5 -27zM512 470q-71 0 -121 -50t-50 -121t50 -121.5t121 -50.5t121.5 50.5t50.5 121.5t-50.5 121t-121.5 50z" />
    <glyph glyph-name="uniE605" unicode="&#xe605;" 
d="M315 752l-59 -60l392 -392l-392 -392l59 -60l453 452z" />
    <glyph glyph-name="uniE606" unicode="&#xe606;" 
d="M964 497l-60 59l-392 -392l-392 392l-60 -59l452 -453z" />
    <glyph glyph-name="uniE607" unicode="&#xe607;" 
d="M512 556l-452 -453l60 -59l392 392l392 -392l60 59z" />
    <glyph glyph-name="uniE608" unicode="&#xe608;" 
d="M256 300l453 -452l59 60l-392 392l392 392l-59 60z" />
    <glyph glyph-name="uniE609" unicode="&#xe609;" 
d="M566.5 457.5q-14.5 -14.5 -8.5 -41t29.5 -49.5t50 -29.5t41 8t8.5 41.5t-29.5 50t-50 29t-41 -8.5zM512 750q-91 0 -174 -35.5t-143 -95.5t-95.5 -143t-35.5 -174t35.5 -174t95.5 -143t143 -95.5t174 -35.5t174 35.5t143 95.5t95.5 143t35.5 174t-35.5 174t-95.5 143
t-143 95.5t-174 35.5zM735 262q-33 -32 -85 -29t-102 39l-199 -199q-11 -12 -27.5 -12t-28 12t-11.5 28t12 28l15 15l-43 43q-6 6 -6 14t5.5 14t14 6t14.5 -6l43 -43l13 14l-14 15q-6 5 -6 13.5t5.5 14t14 5.5t14.5 -5l14 -15l14 14l-43 43q-3 3 -4.5 8t0 10.5t4.5 8.5
q6 6 14.5 6t13.5 -6l43 -42l72 72q-35 49 -38 101t29 85q25 25 62.5 29t78.5 -13t76 -51q25 -26 41 -56.5t21 -59.5t-2 -56t-25 -45z" />
    <glyph glyph-name="uniE60A" unicode="&#xe60a;" 
d="M950 356l-122 96v107q0 13 -9.5 22.5t-22.5 9.5h-61q-9 0 -16.5 -4t-11.5 -12t-4 -16v-15l-151 116q-1 0 -2 1q-8 5 -18 8t-20 3q-7 0 -13.5 -1t-13 -4t-12.5 -7l-399 -304q-5 -4 -7.5 -9.5t-2 -12t4.5 -12t9.5 -8t12 -2t11.5 4.5l398 304h1q5 4 11.5 4t11.5 -4l1 -1
l398 -303q5 -4 11 -4.5t12 2t10 8.5q5 8 3.5 17.5t-9.5 15.5zM820 306l-276 214q-3 2 -7 4t-8 3.5t-8 2t-9 0.5q-17 0 -31 -10h-1l-276 -214q-10 -7 -10 -19v-270q0 -35 24.5 -59.5t58.5 -24.5h134v201q0 18 8.5 32.5t23 23.5t32.5 9h65q27 0 45.5 -19t18.5 -46v-201h143
q35 0 59 24.5t24 59.5v270q0 12 -10 19z" />
    <glyph glyph-name="uniE60B" unicode="&#xe60b;" horiz-adv-x="1000" 
d="M722 547q-176 -8 -238 -11q-30 -1 -39.5 19t14.5 46q1 1 3 2q20 20 25.5 33.5t2.5 45.5q-4 38 -35.5 55.5t-71.5 17.5q-38 -1 -71 -20t-44 -51q-18 -54 16 -80q2 -1 6.5 -4t6.5 -4.5t6 -5.5t5.5 -6.5t2.5 -6.5t-0.5 -8t-5.5 -9t-10 -10q-19 -15 -213 3q0 -19 -1.5 -45
t-3 -91t2.5 -76q3 -21 22.5 -26t36.5 16q13 16 34.5 19.5t42.5 -5.5t37.5 -32t18.5 -55q1 -26 -8.5 -46t-24.5 -29t-31.5 -12.5t-31 1.5t-20.5 16q-10 16 -28.5 24t-34 1.5t-16.5 -26.5q-1 -30 5.5 -100t14.5 -125l8 -55q14 -4 37 -8.5t72.5 -10.5t74.5 -2q20 3 26 29
t-12 42q-7 6 -10.5 20.5t-0.5 31.5t12.5 32t33 23.5t56.5 5.5q26 -3 43 -13.5t22.5 -23.5t5.5 -27t-5 -25t-13 -15q-11 -8 -13.5 -22t7.5 -28.5t32 -20.5q13 -3 35 -3.5t44.5 1.5t50 5.5t48 6.5t42 7t29 5.5t11.5 2.5q-3 18 -7 45.5t-9 84t-2 79.5q4 18 16 25.5t25.5 4.5
t24.5 -9t14 -10q26 -33 63 -34.5t65.5 31t28.5 85.5q0 75 -38.5 106t-78.5 22.5t-48 -30.5q-7 -21 -24 -27t-31.5 1t-17.5 20q-2 10 -3.5 24.5t-1.5 30.5t1 33.5t2 34.5t2 33.5t2.5 30.5t2.5 24t2 16z" />
    <glyph glyph-name="uniE60C" unicode="&#xe60c;" 
d="M931 607h-396q-9 0 -17 3.5t-14 9t-10 13t-5 16.5q0 2 -1 3v2v0q-3 35 -29.5 59t-62.5 24h-303q-19 0 -36 -7t-29.5 -19.5t-20 -30t-7.5 -36.5v-688q0 -39 27.5 -66t65.5 -27h838q38 0 65.5 27t27.5 66v558q0 39 -27.5 66t-65.5 27zM977 -44q0 -10 -3.5 -18.5t-9.5 -15
t-15 -10t-18 -3.5h-838q-13 0 -23.5 6.5t-16.5 17t-6 23.5v512h930v-512zM47 514v130q0 13 6 23.5t16.5 17t23.5 6.5h303q11 0 21.5 -5.5t17 -15t7.5 -21.5v-1v-2v-2q4 -35 30.5 -59t62.5 -24h396q19 0 32.5 -14t13.5 -33h-930z" />
    <glyph glyph-name="uniE60D" unicode="&#xe60d;" 
d="M959 457h-14v102q0 17 -8.5 32t-23.5 23.5t-32 8.5h-400v58q0 27 -18.5 45.5t-45.5 18.5h-352q-17 0 -32 -8.5t-23.5 -23.5t-8.5 -32v-762q0 -17 8.5 -32t23.5 -23.5t32 -8.5h816q27 0 45.5 18.5t18.5 45.5l78 474q0 13 -5 25t-13.5 20.5t-20.5 13.5t-25 5zM49 649
q0 27 10.5 37.5t37.5 10.5h288q13 0 22 -2.5t15 -8.5t8.5 -15t2.5 -22v-74h2h46h368q18 0 28.5 -4.5t15 -15t4.5 -28.5v-70h-754q-17 0 -32 -8.5t-23.5 -23.5t-8.5 -32l-30 -195v451zM897 -49q0 -11 -1.5 -18.5t-5 -13.5t-9.5 -9.5t-13.5 -5t-18.5 -1.5h-752q-26 0 -37 10.5
t-11 37.5l78 410q0 27 11 37.5t37 10.5h752q27 0 37.5 -10.5t10.5 -37.5z" />
    <glyph glyph-name="uniE60E" unicode="&#xe60e;" 
d="M795 446q-5 26 -24 45l-162 162q-20 19 -48 24l-1 1h-244q-24 0 -44 -11.5t-31.5 -31.5t-11.5 -44v-586q1 -17 8.5 -32t19 -26.5t27 -18t32.5 -6.5h392q36 0 61.5 25.5t25.5 61.5v435v2zM585 595l126 -126h-95q-13 0 -22 9t-9 22v95zM738 9q0 -12 -8.5 -20.5t-21.5 -8.5
h-392q-13 0 -21.5 8.5t-8.5 20.5v582q0 5 1.5 9.5t4.5 8t6.5 6t8 4t9.5 1.5h212v-120q0 -24 11.5 -44t32 -32t44.5 -12h122v-403zM660 140h-240h-56q-6 0 -11.5 -2.5t-9 -6.5t-6 -9t-2.5 -11t2.5 -11.5t6 -9t9 -6t11.5 -2.5h17h204h75q8 0 14.5 4t10.5 10.5t4 14.5
q0 21 -21 27zM660 255h-17h-54h-225q-8 0 -14.5 -3.5t-10.5 -10.5t-4 -15q0 -4 1.5 -8.5t4 -8t6 -6t8 -4t9.5 -1.5h240h56q12 0 20.5 8.5t8.5 20t-8.5 20t-20.5 8.5zM596 371h-14h-43h-181q-9 0 -16 -8.5t-7 -20.5t7 -20.5t16 -8.5h193h45q7 0 12 4t8 10.5t3 14.5
q0 23 -18 28q-3 1 -5 1z" />
    <glyph glyph-name="uniE60F" unicode="&#xe60f;" 
d="M837 738h-650l-100 -100v-800h600l50 50v650l-49 50h-501l50 50l550 1l50 -51v-649h100v699zM236 79q64 69 110 84q10 3 17.5 21.5t2.5 32.5q0 1 -1 2v1q-2 4 -4 6q-15 16 -23 37l-1 1v1q-1 2 -1 2.5t-1 1.5v2q-2 5 -2 8h-1v3l-1 9v0q0 1 -0.5 3t-0.5 4q0 17 7 33
t18.5 27t27 18t32.5 7h1q23 0 42.5 -11.5t31 -31t11.5 -42.5q0 -2 -1 -4v-3q0 -4 -1 -9v-2q0 -1 -1 -1q0 -3 -2 -8q0 -1 -1 -4l-1 -2v0v-1l-1 -1q-1 -3 -2.5 -6.5t-4 -7.5t-5 -7.5t-5.5 -7.5l-6 -8q-2 -2 -4 -6l-1 -1v-2q-5 -14 2.5 -32.5t17.5 -21.5q47 -17 110 -84v-38
h-359v38z" />
    <glyph glyph-name="uniE610" unicode="&#xe610;" 
d="M903 244h-336v-336q0 -9 -3 -17.5t-8 -15t-12 -12t-15.5 -8t-17.5 -2.5q-23 0 -39.5 16t-16.5 39v336h-336q-23 0 -39.5 16.5t-16.5 39.5t16.5 39.5t39.5 16.5h336v336q0 15 7.5 28t20.5 20.5t28 7.5q23 0 39.5 -16.5t16.5 -39.5v-336h336q23 0 39.5 -16.5t16.5 -39.5
t-16.5 -39.5t-39.5 -16.5z" />
    <glyph glyph-name="uniE611" unicode="&#xe611;" 
d="M509 755q-92 0 -176.5 -36t-145.5 -97t-97 -145.5t-36 -177t36 -177t97 -145.5t145.5 -97t176.5 -36q74 0 143.5 23t125.5 65.5t98 98.5t65 125t23 143.5t-23 144t-65 125t-98 98t-125.5 65.5t-143.5 23zM509 -108q-110 0 -204 54.5t-148.5 148.5t-54.5 204.5t54.5 204.5
t148.5 148.5t204 54.5q83 0 158.5 -32.5t130 -87t86.5 -130t32 -158t-32 -158t-86.5 -130t-130 -87t-158.5 -32.5zM681 332h-344q-4 0 -9 -3t-8 -8t-5 -10.5t-2 -10.5q0 -11 7.5 -21.5t16.5 -10.5h344q9 0 16.5 10.5t7.5 21.5t-7.5 21.5t-16.5 10.5z" />
    <glyph glyph-name="uniE612" unicode="&#xe612;" 
d="M511.5 754q-92.5 0 -176.5 -36t-145 -97t-97.5 -145t-36.5 -176.5t36.5 -177t97.5 -145.5t145 -97t176.5 -36t177 36t145.5 97t97 145.5t36 177t-36 176.5t-97 145t-145.5 97t-177 36zM511.5 -108q-110.5 0 -204.5 54.5t-148.5 148.5t-54.5 204q0 83 32.5 158.5t87 130
t130 86.5t158.5 32q110 0 204 -54.5t148.5 -148t54.5 -204t-54.5 -204.5t-148.5 -148.5t-204.5 -54.5zM683 332h-139v139q0 6 -5.5 12t-12.5 9t-14 3q-11 0 -21.5 -7.5t-10.5 -16.5v-139h-140q-4 0 -7.5 -2t-6.5 -5.5t-5.5 -7.5t-3.5 -8.5t-1 -8.5q0 -11 7 -21.5t17 -10.5
h140v-140q0 -10 10.5 -17t21.5 -7t21.5 7t10.5 17v140h139q10 0 17 10.5t7 21.5t-7 21.5t-17 10.5z" />
    <glyph glyph-name="uniE613" unicode="&#xe613;" 
d="M470 261h-336q-15 0 -28 7.5t-20 20.5t-7 28q0 23 16 39.5t39 16.5h336h112h336q23 0 39.5 -16.5t16.5 -39.5t-16.5 -39.5t-39.5 -16.5h-336h-112z" />
    <glyph glyph-name="uniE614" unicode="&#xe614;" 
d="M513 795q-101 0 -193 -39t-158.5 -105.5t-105.5 -158.5t-39 -193q0 -81 25 -156.5t71 -136.5t107 -107t136.5 -71t156.5 -25q101 0 193 39.5t158 105.5t105.5 158t39.5 193q0 81 -25 156.5t-71 136.5t-107 107t-136.5 71t-156.5 25zM513 -144q-72 0 -140 22.5
t-122.5 63.5t-95.5 95.5t-63 122t-22 139.5q0 90 35 172t94.5 141.5t141.5 94.5t172 35t172 -35t141.5 -94.5t94.5 -141.5t35 -172t-35 -172t-94.5 -141.5t-141.5 -94.5t-172 -35zM293 360l-73 -73l231 -232l337 337l-76 76l-264 -264z" />
    <glyph glyph-name="uniE615" unicode="&#xe615;" 
d="M496 780q-205 0 -350.5 -145.5t-145.5 -350.5t145.5 -350.5t350.5 -145.5t350.5 145.5t145.5 350.5t-145.5 350.5t-350.5 145.5zM496 -148q-179 0 -305.5 126.5t-126.5 305.5t126.5 305.5t305.5 126.5t305.5 -126.5t126.5 -305.5t-126.5 -305.5t-305.5 -126.5zM496 556
q-20 0 -34 -14t-14 -34v-2v-3l16 -299q0 -13 9.5 -22.5t22.5 -9.5t22.5 9.5t9.5 22.5l16 299v5q0 20 -14 34t-34 14zM496 28zM448 28q0 20 14 34t34 14t34 -14t14 -34t-14 -34t-34 -14t-34 14t-14 34z" />
    <glyph glyph-name="uniE616" unicode="&#xe616;" horiz-adv-x="1087" 
d="M543 812q-188 0 -332 -122q-136 -116 -171 -292q-9 -49 -9 -98q0 -104 40.5 -199t109 -163.5t163.5 -109t199 -40.5q83 0 161.5 26t141.5 73t110 110t73 141.5t26 161.5q0 104 -40.5 199t-109 163.5t-163.5 109t-199 40.5zM543 -157q-93 0 -177.5 36t-146 97.5t-97.5 146
t-36 177.5t36 177.5t97.5 146t146 97.5t177.5 36q37 0 74 -6t70.5 -17t65.5 -27.5t60 -37.5t53 -46t46 -53t37.5 -60t27.5 -65.5t17 -70.5t6 -74q0 -93 -36 -177.5t-97.5 -146t-146 -97.5t-177.5 -36zM316 362zM316 362zM712 51l-417 418l81 81l417 -418zM376 51l-81 81
l417 418l81 -81z" />
    <glyph glyph-name="uniE617" unicode="&#xe617;" 
d="M974 392l-47 -46l-129 128l47 46q11 11 25.5 12.5t23.5 -7.5l85 -83q8 -10 7 -24.5t-12 -25.5v0zM775 453l130 -127l-309 -305l-2 -2q-1 -1 -4 -2.5t-5 -1.5q-1 0 -2 -1l-162 -51q-8 -2 -12 2q-5 5 -2 13l51 158q0 1 1 2q2 10 7 13l59 54h-196q-16 0 -16 16q0 7 5 12.5
t11 5.5h227zM556 31l-80 79l-21 -67l33 -34zM771 403q-3 3 -8 3t-8 -3l-243 -238q-4 -3 -4 -8t4 -8q3 -3 8 -3t8 3l242 237q9 7 1 17v0zM231 -61q-15 1 -16 11v647q0 5 0.5 7.5t3.5 3.5t4 1.5t7 0.5h6h56v-22q0 -6 5.5 -10.5t12.5 -4.5t13 4.5t6 10.5v22h84v-22
q0 -4 2.5 -7.5t7 -5.5t8.5 -2q13 0 18 11q1 2 1 4v22h76v-22q0 -4 3 -7.5t7 -5.5t9 -2q6 0 12 4.5t6 10.5v22h77v-22q0 -4 2.5 -7.5t7 -5.5t8.5 -2q7 0 13 4.5t6 10.5v22h64q14 0 14 -13v-106l47 46v60q0 9 -2 16.5t-6 14t-9.5 11.5t-12 9t-14.5 6t-17 2h-65v40
q0 3 -1.5 5.5t-4 4.5t-6 3.5t-7.5 1.5q-6 0 -12 -5t-6 -10v-40h-77v40q0 3 -1.5 5.5t-4 4.5t-6 3.5t-6.5 1.5q-7 0 -13 -5t-6 -10v-40h-76v40q0 3 -2 5.5t-4.5 4.5t-6 3.5t-6.5 1.5q-6 0 -12 -5t-6 -10v-40h-84v40q0 3 -2 5.5t-4.5 4.5t-5.5 3.5t-7 1.5q-6 0 -12 -5t-6 -10
v-40h-55q-34 0 -51.5 -16t-17.5 -43v-646q0 -12 5.5 -23t14.5 -18.5t21 -12t24 -4.5h508q26 0 43.5 16.5t17.5 41.5v223l-47 -46v-178q0 -11 -14 -11h-509zM634 481h-306q-4 0 -7.5 -3t-5.5 -7t-2 -8q0 -6 4.5 -11.5t10.5 -5.5h306q6 0 10 5.5t4 11.5t-4 12t-10 6v0z
M634 363h-306q-4 0 -7.5 -3t-5.5 -7t-2 -8q0 -6 4.5 -11.5t10.5 -5.5h306q6 0 10 5.5t4 11.5t-4 12t-10 6v0zM634 363z" />
    <glyph glyph-name="uniE618" unicode="&#xe618;" 
d="M677 595v62q0 16 -8.5 30.5t-24 22.5t-33.5 8h-198q-28 0 -47 -18t-19 -43v-62h-265v-61h99v-615q0 -25 19.5 -43t46.5 -18h530q18 0 33 8t24 22.5t9 30.5v615h99v61h-265zM413 657h198v-62h-198v62zM777 -81h-530v615h530v-615zM347 442h66v-430h-66v430zM479 442h66
v-430h-66v430zM611 442h66v-430h-66v430zM611 442z" />
    <glyph glyph-name="uniE619" unicode="&#xe619;" 
d="M883 29q4 -14 7 -36t3 -45q0 -11 -1 -21.5t-3 -20.5q-3 -20 -10 -30q-2 -2 -5.5 -4.5t-8.5 -5t-12 -4.5q-21 -6 -53 -12q-31 -5 -71 -11q-9 -1 -19 -2t-19.5 -2t-19.5 -2t-19 -2q-39 -4 -76 -5q-9 -1 -17.5 -1t-16.5 -0.5t-16 -0.5h-14q-28 0 -64 2t-75 5q-38 3 -76 7
q-19 2 -36 4.5t-33 5t-29 5t-24 4.5q-22 5 -27 10q-2 2 -4.5 5.5t-4 9t-3 13.5t-2.5 17q-6 38 4 99q5 35 28 53.5t53 29t63 18.5q9 2 16.5 4.5t15 6t14 7t12.5 7.5l6 4l6 4q3 2 5.5 4t4.5 3.5t4 3.5l4 4q6 6 9.5 11.5t5.5 11.5q2 2 3 5v6l2 6v6v13q0 7 -1 14q-2 23 -15 35
t-28 26q-4 3 -7.5 7.5t-6.5 9.5l-10 24q-2 5 -3.5 9.5t-3 9.5t-3.5 11q-2 2 -6 7q-3 5 -7 14t-9 25t-6.5 28.5t0.5 22.5q1 11 5 19q0 35 4 71q2 15 5.5 31t7.5 33q9 35 30 62q18 26 40 43q7 5 14.5 10t15 9t14.5 7q23 9 47 12q11 2 22.5 3t22.5 1q23 -2 38 -5.5t24 -8.5
t16 -12.5t14 -14.5h19q5 0 9.5 -0.5t8.5 -2t8.5 -3.5t9 -6t9 -9t9.5 -11q12 -16 20.5 -32.5t14.5 -34.5q3 -9 5.5 -18t4.5 -17.5t3.5 -17t2.5 -16.5q3 -19 4.5 -37.5t2.5 -36.5q2 -5 3 -12t1.5 -17.5t-1.5 -25.5q-1 -7 -2 -13t-2 -10.5t-3 -8.5q-4 -12 -9 -18q-5 -7 -11 -10
q-4 -17 -9 -30q-3 -6 -5.5 -12t-5.5 -12q-6 -11 -14 -17q-17 -15 -28.5 -24.5t-15.5 -32.5q-3 -15 -2 -29q1 -3 1 -6t1 -5.5t1.5 -5.5t2 -6t2.5 -6q3 -7 8.5 -14t12.5 -14q15 -13 42 -23q12 -5 24.5 -9t26.5 -8q10 -3 19 -5.5t18 -5.5t18 -7q26 -9 46 -25q10 -7 17.5 -17
t11.5 -22v0zM555 62q3 6 0.5 13t-8 13t-12.5 13h-47q-7 -7 -11 -13q-4 -5 -6.5 -11t0.5 -12q7 -13 12 -25q5 -10 11 -16q-1 -5 -2.5 -11.5t-3.5 -14.5q-1 -6 -2.5 -11.5t-2.5 -11.5l-2 -12q-2 -9 -3.5 -17.5t-3 -16t-2 -13.5t-0.5 -10q0 -3 1 -6t3 -7q5 -7 11 -14.5
t13 -12.5t12 -5h2t4 1l2 2l4 2q7 5 14 12q3 3 6 6.5t5 7.5l3 7q2 3 2 6t-1 8t-2 12q-3 15 -7 34q-2 9 -4 17.5t-4 17.5q-4 18 -7 28q6 5 12 14.5t14 25.5v0zM555 62z" />
    <glyph glyph-name="uniE61A" unicode="&#xe61a;" horiz-adv-x="1133" 
d="M1083 285q9 0 16 -6.5t11 -16.5t2.5 -23.5t-10.5 -27.5q-20 -30 -49 -75t-73 -99q-13 -16 -24.5 -22t-26.5 -4q-16 2 -24.5 14t-23.5 27q-22 21 -42 47t-36.5 50t-28.5 43t-16 25q-10 15 -11 28t2 21.5t9.5 13.5t13.5 5h100q0 72 -29 142t-83 124q-50 50 -114.5 74
t-132.5 23t-132 -26.5t-114 -75.5t-78 -116.5t-31 -137.5t20 -137t74 -114q45 -41 90.5 -65t88.5 -35t82 -10t72 9t58.5 21t40.5 27q23 14 49.5 15t46.5 -20q24 -25 17.5 -51t-30.5 -49q-11 -11 -24 -17q-65 -46 -140.5 -60.5t-152 -2t-149 50.5t-130.5 96q-71 70 -106 159
t-35 181.5t35.5 182t106 160t159.5 106t181.5 35.5t182 -35.5t159.5 -106.5q40 -39 67 -83t43 -89.5t23 -90.5t7 -84h89zM585 287q0 -25 -18 -43.5t-43.5 -18.5t-43.5 18.5t-18 43.5v184q0 26 18 43.5t43.5 17.5t43.5 -17.5t18 -43.5v-184zM523.5 164q25.5 0 43.5 -18
t18 -43.5t-18 -43t-43.5 -17.5t-43.5 17.5t-18 43t18 43.5t43.5 18z" />
    <glyph glyph-name="uniE61B" unicode="&#xe61b;" 
d="M946 750q-19 0 -32.5 -13.5t-13.5 -33.5v-129q-70 97 -176 152t-228 55q-67 0 -131.5 -18t-118.5 -50t-100 -78t-78 -100t-50 -118.5t-18 -132.5q0 -80 25 -156t71 -137t107 -107t137 -71t156 -25q152 0 277 83.5t183 223.5q3 9 3 18t-3 18q-8 17 -25.5 24.5t-35.5 0.5
q-9 -4 -15.5 -10.5t-9.5 -14.5q-47 -114 -149 -182t-225 -68q-109 0 -202 54t-147 147t-54 202.5t54 202.5t147 147t202 54q105 0 195 -49.5t145 -136.5h-138q-19 0 -32.5 -14t-13.5 -33q0 -9 3.5 -18t9.5 -15t15 -9.5t18 -3.5h248q20 0 33.5 13.5t13.5 32.5v248
q0 10 -3.5 18.5t-10 15t-15 10t-18.5 3.5z" />
    <glyph glyph-name="uniE61C" unicode="&#xe61c;" 
d="M769 432l-126 126l63 63q8 8 18 12t20 4t20 -4t18 -12l50 -50q16 -16 16 -38t-16 -38zM403 67l-126 125l343 340l126 -126zM176 -37l77 205l125 -125z" />
    <glyph glyph-name="uniE61D" unicode="&#xe61d;" 
d="M855 552q2 3 3.5 5.5t2.5 5.5t1.5 6.5t0 6.5t-1.5 6t-2.5 6t-3.5 5l-50 50q-5 5 -12.5 7t-15 0t-13.5 -7l-231 -232q-21 -21 -42 0l-231 232q-4 4 -9.5 6t-11 2t-11 -2t-9.5 -6l-50 -50q-8 -8 -8 -20t8 -21l232 -231q4 -5 6.5 -10t2.5 -10.5t-2.5 -11t-6.5 -10.5
l-232 -231q-8 -9 -8 -21t8 -20l50 -50q8 -8 20 -8t21 8l231 232q9 9 21 9t21 -9l231 -232q9 -8 21 -8t20 8l50 50q8 8 8 20t-8 21l-232 231q-3 3 -4.5 6t-2.5 6t-1.5 6t0 6t1.5 6t2.5 6t4.5 6z" />
    <glyph glyph-name="uniE61E" unicode="&#xe61e;" 
d="M891 85q-17 0 -26 -12t-9 -32v-58q-1 -7 -3 -12t-4.5 -9.5t-5.5 -8t-7.5 -6.5t-9 -5.5t-10.5 -4t-12.5 -2.5t-14.5 -2h-568q-17 2 -28 7.5t-17.5 15.5t-8.5 26v604q3 25 13.5 37t33.5 16h593q16 -3 25.5 -9.5t15.5 -17.5t8 -27v-49q0 -10 2 -17.5t6.5 -13.5t11 -9.5
t15.5 -3.5q18 0 26.5 12t8.5 32v93q-1 17 -8 32.5t-18.5 26.5t-27 17.5t-33.5 6.5h-658q-35 -2 -59.5 -27t-24.5 -60v-677q2 -34 26 -58t57 -26h659q23 0 43 11t32 30.5t13 42.5v93q0 9 -2.5 17t-6.5 14t-11 9.5t-16 3.5zM707 85q9 -9 23 -10.5t24 6.5l165 166q9 9 7 26
q0 10 -5 17q-2 3 -5 5q0 1 -1 1.5t-2 1.5l-159 159q-9 9 -24 8t-24 -10t-10.5 -24t7.5 -24l100 -101h-261q-13 0 -26 -10.5t-13 -25.5t12.5 -25t26.5 -10l263 -1l-102 -102q-9 -9 -7.5 -23.5t11.5 -23.5z" />
    <glyph glyph-name="uniE61F" unicode="&#xe61f;" 
d="M138 387q-10 0 -19.5 -3t-18.5 -8t-16 -13q-21 -22 -21 -53q1 -10 3.5 -19.5t7.5 -18t13 -14.5l312 -299q12 -11 27 -16.5t31 -4.5q33 3 54 30l434 575q19 25 15 55.5t-29 49.5q-16 12 -36 14t-38.5 -5.5t-30.5 -23.5l-384 -508l-252 241q-10 10 -23.5 15.5t-28.5 5.5z
" />
    <glyph glyph-name="uniE620" unicode="&#xe620;" 
d="M890 434q0 -157 -264 -504q-64 -84 -114 -142q-15 18 -40.5 48.5t-91 117t-115.5 164t-90.5 167.5t-40.5 149q0 102 50.5 189.5t137.5 138t190 50.5q62 0 119.5 -19t104 -54t81.5 -81.5t54 -104.5t19 -119zM660 443q0 62 -43.5 105t-104.5 43t-104.5 -43t-43.5 -104.5
t43.5 -104.5t104.5 -43t104.5 43t43.5 104z" />
    <glyph glyph-name="uniE621" unicode="&#xe621;" 
d="M241 472q6 -24 13.5 -51.5t17.5 -56t22 -56.5t27 -53v-404l-256 -63v640zM317 507q0 5 -0.5 9.5t-0.5 9.5q0 46 18 86t49 70.5t72 47.5t88 17t88 -17t71.5 -47.5t48.5 -70.5t18 -86v-12q0 -6 -1 -12q-6 -55 -24 -104.5t-45.5 -95.5t-63.5 -88.5t-77 -81.5q-7 -7 -15 -7
t-16 7q-42 39 -77.5 82t-63.5 90t-45.5 98t-23.5 105zM542.5 621q-20.5 0 -38 -7.5t-30 -20t-20.5 -30t-8 -37t8 -37t20.5 -30.5t30 -20t38 -7t38.5 7t31 20t20.5 30.5t7.5 37t-7.5 37t-20.5 30t-31 20t-38.5 7.5zM384 172q30 -33 58 -59.5t51 -46.5q26 -24 50 -42
q12 10 27 23q14 11 31 28.5t40 39.5v-327l-257 63v321zM961 493v-642l-256 -63v392q6 6 11.5 13t11.5 13q21 22 38 53.5t31 66.5t25 70.5t19 66.5z" />
    <glyph glyph-name="uniE622" unicode="&#xe622;" 
d="M902 150q-63 -79 -124 -140q-12 -12 -25 -24t-24 -21.5t-21.5 -18.5t-18.5 -15.5t-14 -10.5l-10 -8l-3 -2q-63 -63 -152.5 -63t-153.5 63q-57 42 -116 100q-17 17 -36 38t-34 38t-27.5 32t-19.5 24l-7 8q-63 63 -63 152.5t63 153.5q5 7 14 18.5t37 43.5t55 59
q12 12 26 25.5t26 24.5l26 22q12 11 22 19t18 14.5t12 9.5l4 4q64 63 153.5 63t152.5 -63q73 -58 132 -116q27 -27 54 -58t41 -49l13 -17q63 -64 63 -153.5t-63 -152.5zM798 348q0 7 -2 12.5t-6 9.5t-10 6.5t-12 2.5h-183v182q0 7 -2 12.5t-6 9.5t-10 6.5t-12 2.5h-91
q-14 0 -22.5 -9t-8.5 -22v-182h-183q-8 0 -15 -4t-11 -11t-4 -16v-91q0 -5 1.5 -9.5t4 -8.5t6.5 -6.5t8.5 -4t9.5 -1.5h183v-183q0 -13 8.5 -21.5t22.5 -8.5h91q12 0 21 15.5t9 29.5v168h183q13 0 21.5 8.5t8.5 21.5v91z" />
    <glyph glyph-name="uniE623" unicode="&#xe623;" 
d="M823 637h-624q-29 0 -50.5 -21.5t-21.5 -50.5v-528q0 -30 21.5 -51t50.5 -21h624q30 0 51 21t21 51v528q0 9 -2.5 18.5t-7 17.5t-11 14.5t-14.5 11t-17.5 7.5t-19.5 3zM245 456q0 13 6.5 24.5t17.5 17.5t24 6h144q10 0 19 -3.5t15.5 -10t10 -15.5t3.5 -19v-192
q0 -19 -14 -33.5t-34 -14.5h-144q-13 0 -24 6.5t-17.5 17.5t-6.5 24v192zM753 97h-484q-6 0 -11.5 3t-9 8.5t-3.5 12.5q0 10 7 17t17 7h484q7 0 12.5 -3.5t8.5 -9t3 -11.5q0 -10 -7 -17t-17 -7zM753 217h-192q-4 0 -8.5 1.5t-8 5t-5.5 8t-2 9.5q0 3 1 6t2.5 5.5t4 5t5 4
t5.5 2.5t6 1h192q10 0 17 -7t7 -17t-7 -17t-17 -7zM753 337h-192q-4 0 -8.5 1.5t-8 5t-5.5 8t-2 9.5q0 9 7 16.5t17 7.5h192q5 0 9.5 -2t8 -5.5t5 -8t1.5 -8.5q0 -7 -3 -12.5t-8.5 -8.5t-12.5 -3zM753 456h-192q-4 0 -8.5 2t-8 5.5t-5.5 8t-2 8.5q0 10 7 17t17 7h192
q10 0 17 -7t7 -16.5t-7 -17t-17 -7.5z" />
    <glyph glyph-name="uniE624" unicode="&#xe624;" 
d="M1024 487v72q0 17 -8.5 32t-23.5 23.5t-32 8.5h-512v58q0 27 -18.5 45.5t-45.5 18.5h-320q-17 0 -32 -8.5t-23.5 -23.5t-8.5 -32v-194h1024zM0 439v-520q0 -17 8.5 -32t23.5 -23.5t32 -8.5h896q27 0 45.5 18.5t18.5 45.5v520h-1024z" />
    <glyph glyph-name="uniE625" unicode="&#xe625;" 
d="M912 -80q0 -18 -8.5 -32.5t-23.5 -23t-32 -8.5h-800l112 528q0 26 18.5 45t45.5 19h736q27 0 45.5 -19t18.5 -45zM176 496h720v62q0 13 -5 25t-13.5 20.5t-20.5 13.5t-25 5h-384v58q0 27 -18.5 45.5t-45.5 18.5h-320q-17 0 -32 -8.5t-23.5 -23t-8.5 -32.5v-760l112 512
q0 26 18.5 45t45.5 19z" />
    <glyph glyph-name="uniE626" unicode="&#xe626;" 
d="M312 507q19 0 36 -7t29 -19.5t19.5 -29.5t7.5 -36q0 -25 -12.5 -46.5t-33.5 -33.5t-46 -12q-11 0 -21 2.5t-19 7t-17 10.5t-14.5 14t-11 17t-6.5 19.5t-2 21.5q0 38 26.5 65t64.5 27zM168 33l157 211l105 -132h26l183 369l157 -448h-628zM822 420v-387q0 -22 -15 -37.5
t-37 -15.5h-576q-21 0 -36.5 15.5t-15.5 37.5v474q0 14 7 26.5t19 19.5t26 7h487v79h-565q-22 0 -37 -15.5t-15 -37.5v-632q0 -22 15 -37.5t37 -15.5h732q22 0 37.5 15.5t15.5 37.5v466h-79zM821 699h80v-200h-80v200zM761 639h199v-80h-199v80z" />
    <glyph glyph-name="uniE627" unicode="&#xe627;" 
d="M512 811q-69 0 -134.5 -18t-121 -50t-102.5 -78t-80.5 -101t-52.5 -119.5t-21 -132.5q3 119 59 219t151 158t206 58q113 0 208.5 -60t151 -163t55.5 -224q0 -53 45 -82q24 -14 51 -14q20 0 37.5 7.5t30.5 20.5t20.5 30.5t7.5 37.5q0 59 -13.5 116.5t-38.5 108t-60 95
t-79.5 79.5t-95 60t-108 38.5t-116.5 13.5zM512 -212q82 0 159 25t139.5 71t110 107.5t74 138t28.5 158.5q-3 -119 -59 -219.5t-150.5 -158.5t-206.5 -58t-208 60t-151.5 163t-55.5 225q0 39 -28 67t-68 28q-20 0 -37.5 -7.5t-30.5 -20t-20.5 -30.5t-7.5 -37q0 -84 26 -162
t73 -141t110 -110t141 -73t162 -26z" />
    <glyph glyph-name="uniE628" unicode="&#xe628;" 
d="M550 355v93h-74v-93q0 -8 -5.5 -13.5t-12.5 -5.5h-93v-74h93q7 0 12.5 -5.5t5.5 -13.5v-92h74v92q0 5 2.5 9.5t7 7t9.5 2.5h93v74h-93q-8 0 -13.5 5.5t-5.5 13.5zM68 -16q0 -25 12.5 -46.5t34 -34t46.5 -12.5h705q25 0 46.5 12.5t34 34t12.5 46.5v18h-891v-18zM940 596
h-167v18q0 8 -5.5 13.5t-12.5 5.5h-56v19q0 22 -16.5 38.5t-39.5 16.5h-259q-23 0 -39.5 -16.5t-16.5 -38.5v-19h-56q-16 -3 -18 -19v-18h-167q-4 0 -7.5 -1.5t-6 -4t-4 -6t-1.5 -7.5v-538h891v538q0 5 -2.5 9.5t-7 7t-9.5 2.5zM365 614v38q0 3 1.5 6.5t4 6t6 4t7.5 1.5h259
q8 0 13.5 -5.5t5.5 -12.5v-38q0 -3 1.5 -6.5t4 -6t6 -4t6.5 -1.5h-334q3 0 5.5 0.5t4.5 2t3.5 3t3 3.5t2 4.5t0.5 4.5zM699 243q0 -7 -5.5 -12.5t-13.5 -5.5h-92v-93q0 -8 -5.5 -13t-13.5 -5h-111q-8 0 -13.5 5.5t-5.5 12.5v93h-93q-5 0 -9 2.5t-6.5 6.5t-2.5 9v112
q0 5 2.5 9t6.5 6.5t9 2.5h93v93q0 8 5.5 13.5t13.5 5.5h111q16 0 18 -16l1 -3v-93h92q8 0 13.5 -5.5t5.5 -12.5v-112z" />
    <glyph glyph-name="uniE629" unicode="&#xe629;" 
d="M703 111h-382q-5 24 -23.5 54.5t-41.5 60t-45 62t-37 73.5t-15 83q0 83 51 158t133 119.5t169 44.5q65 0 129.5 -26.5t113.5 -70t79.5 -103.5t30.5 -122q0 -85 -73 -186l-24 -33q-54 -73 -63 -107q-1 -4 -2 -7zM638 640l-263 -212l106 -39l-95 -202l263 212l-106 39z
M348 86h328q2 0 4.5 -1t4 -3t2.5 -4t1 -5v-25q0 -4 -1.5 -6.5t-4.5 -4.5t-6 -2h-328q-5 0 -8.5 4t-3.5 9v25q0 5 3.5 9t8.5 4zM373 10h278q5 0 8.5 -3.5t3.5 -9.5v-25q0 -5 -3.5 -8.5t-8.5 -3.5h-278q-3 0 -6 1.5t-4.5 4.5t-1.5 6v25q0 4 1.5 7t4.5 4.5t6 1.5zM436 -66h152
q4 0 7.5 -1t7 -3.5t5.5 -5.5t3.5 -7t1.5 -8v-12q0 -26 -18.5 -44.5t-44.5 -18.5h-76q-13 0 -24.5 5t-20 13t-13.5 20t-5 25v12q0 11 7.5 18t17.5 7z" />
    <glyph glyph-name="uniE62A" unicode="&#xe62a;" 
d="M512 338q74 0 122.5 51t48.5 128v33h-342v-49q0 -41 24 -79t63.5 -61t83.5 -23zM683 712q0 14 -13.5 27.5t-27.5 13.5h-260q-14 0 -27.5 -13.5t-13.5 -27.5v-130h342v130zM528 613h-32v42h-41v25h41v43h32v-43h41v-25h-41v-42zM371 292l146 -187l148 181q-73 39 -153 39
q-73 0 -141 -33zM696 267l-156 -203v-133v-5q0 -2 -0.5 -4.5t-1.5 -4.5t-2.5 -4t-3.5 -3.5t-4 -2.5t-4.5 -1.5t-4.5 -0.5h-1h-1h-183q-9 0 -15 6t-6 14v1h1h-1v75q-31 6 -52 30.5t-21 56.5q0 18 7 34.5t19 28.5t28.5 19t34.5 7q37 0 63 -26t26 -63q0 -32 -20.5 -56.5
t-51.5 -30.5v-60h1l1 -1h154l1 1v123l-4 5l-3 5l-2 2l-155 198q-94 -60 -151.5 -173.5t-57.5 -249.5h764q0 132 -54 243t-144 173zM397 88q0 29 -20 49t-48.5 20t-49 -20t-20.5 -49t20.5 -49t49 -20t48.5 20t20 49zM328 43q-19 0 -32 13t-13 32t13 32.5t32 13.5
q8 0 14.5 -2.5t12.5 -6.5t10 -10t6.5 -13t2.5 -14q0 -19 -13.5 -32t-32.5 -13z" />
    <glyph glyph-name="uniE62B" unicode="&#xe62b;" 
d="M504 385v-75h21q44 0 44 38q0 37 -43 37h-22zM793 483v210q0 7 -2 14.5t-5.5 13.5t-8.5 11.5t-11.5 9t-13.5 5.5t-15 2h-448q-23 0 -39.5 -16.5t-16.5 -39.5v-210h-104v-350h104v-224q0 -11 4.5 -21.5t12 -18t18 -12t21.5 -4.5h448q23 0 39.5 16.5t16.5 39.5v224h104v350
h-104zM737 679v-196h-448v196h448zM621 350q0 -36 -26 -57.5t-66 -20.5h-25v-81h-50v233h80q87 0 87 -74zM262 244l-17 -53h-54l85 233h59l83 -233h-54l-17 53h-85zM513.5 -119q-11.5 0 -20 8t-8.5 20t8.5 20t20 8t19.5 -8t8 -20t-8 -20t-19.5 -8zM737 -35h-448v168h448
v-168zM791 293q-26 -22 -66 -21h-25v-81h-50v233h80q87 0 87 -74q0 -18 -6.5 -32t-19.5 -25zM722 385h-22v-75h21q44 0 44 38q0 37 -43 37zM305 384h-1q-1 -11 -5 -20l-26 -81h62l-26 80q-3 8 -4 21z" />
    <glyph glyph-name="uniE62C" unicode="&#xe62c;" 
d="M475 506h4v12h-4v-12zM470 506h4v12h-4v-12zM487 526v5h-20v-5h-6v-4h3v-19q0 -5 5 -5h16q5 1 5 5v19h3v4h-6zM470 527h13v-1h-13v1zM487 505q0 -3 -4 -3h-13q-3 0 -3 3v14q0 3 3 3h13q2 0 3 -0.5t1 -2.5v-14zM480 506h3v12h-3v-12zM739 667h-530q-15 0 -29.5 -6
t-24.5 -16t-16 -24.5t-6 -29.5v-606q0 -31 22.5 -53.5t53.5 -22.5h606q31 0 53.5 22.5t22.5 53.5v528q0 1 -38 39.5t-76 76.5zM588 553h76v-151h-76v151zM626 -15h-228v151h228v-151zM815 -15h-114v227h-378v-227h-114v606h114v-227h378v227l114 -114v-492z" />
    <glyph glyph-name="uniE62D" unicode="&#xe62d;" 
d="M512 575q-53 0 -106.5 -15t-96.5 -39t-82.5 -53t-68.5 -58t-50.5 -53t-32.5 -39l-10 -15q3 -6 10.5 -15.5t32 -38t51 -54t67.5 -57t83 -54t96 -38t107 -15.5t106.5 15t96.5 39t82.5 53t68.5 58t50.5 53t32.5 39l10 15q-4 6 -11 15.5t-31.5 38t-51 54t-67.5 57t-83 54
t-96 38t-107 15.5zM512 89q-50 0 -101.5 16t-91 39t-78 55t-61.5 55.5t-44 48.5q21 25 44 49t61.5 55.5t78 54.5t91 39.5t101.5 16.5t101.5 -16.5t91 -39.5t78 -54.5t61.5 -55.5t44 -49q-121 -145 -261 -194q-58 -20 -115 -20zM511.5 477q-69.5 0 -118.5 -50.5t-49 -121.5
t49 -121.5t118.5 -50.5t119 50.5t49.5 121.5t-49.5 121.5t-119 50.5zM512 191q-46 0 -79 33.5t-33 80.5t33 81l29 -31q-20 -21 -20 -50.5t20.5 -50.5t49.5 -21q14 0 27 5.5t22 15.5l30 -30q-16 -16 -36 -24.5t-43 -8.5zM554 319q-11 0 -21 6t-15.5 16t-5.5 21
q0 18 12.5 30.5t29.5 12.5q11 0 21 -5.5t15.5 -15.5t5.5 -22q0 -18 -12.5 -30.5t-29.5 -12.5z" />
    <glyph glyph-name="uniE62E" unicode="&#xe62e;" 
d="M729 812h-434q-24 0 -45.5 -9.5t-37.5 -25t-25.5 -37.5t-9.5 -46v-788q0 -49 34.5 -83.5t83.5 -34.5h434q49 0 83.5 34.5t34.5 83.5v788q0 32 -16 59t-43 43t-59 16zM473 773h78q6 0 10.5 -3t7 -7.5t2.5 -9.5q0 -8 -5.5 -14t-14.5 -6h-78q-9 0 -14.5 6t-5.5 14t5.5 14
t14.5 6zM512 -164q-21 0 -35.5 15t-14.5 35q0 14 6.5 25.5t18 18.5t25.5 7q21 0 35.5 -15t14.5 -36q0 -10 -4 -19t-10.5 -16t-16 -11t-19.5 -4zM768 5q0 -4 -1.5 -8t-4 -6.5t-6.5 -4t-8 -1.5h-472q-8 0 -14 5.5t-6 14.5v669q0 8 6 14t14 6h472q6 0 10.5 -2.5t7 -7t2.5 -10.5
v-669zM335 626h354v-158h-354v158zM493 310h-158v118h158v-118zM531 428h158v-118h-158v118zM335 272h354v-41h-354v41zM335 189h354v-41h-354v41zM335 106h354v-41h-354v41z" />
    <glyph glyph-name="uniE62F" unicode="&#xe62f;" 
d="M325 -50zM882 -50zM236 -65zM960 -65zM64 23zM958 23zM81 -66zM1023 -66zM37 -38zM481 512q0 29 21 50t51 21t51 -21t21 -50t-21 -50.5t-51 -21.5q-20 0 -36.5 10t-26 26.5t-9.5 35.5zM446 31q-58 8 -51 77q4 45 37 111q10 19 17 40t9 40.5t-5 32.5t-24 13q-8 0 -7 4
q0 4 13 11q62 33 102 28q30 -3 46 -24.5t15.5 -50.5t-15.5 -57q-24 -47 -38 -90t-7 -60q10 -21 66 -21q15 0 12 -6l-3 -3q-9 -9 -22 -17t-35.5 -17.5t-48 -11.5t-61.5 1zM67 301q0 -186 130 -317q131 -130 317 -130t316 130q131 131 131 317t-131 316q-130 131 -316 131
t-317 -131q-66 -66 -98 -144t-32 -172zM990 -38z" />
    <glyph glyph-name="uniE630" unicode="&#xe630;" horiz-adv-x="1093" 
d="M1003 778h-846q-24 0 -44.5 -11.5t-32.5 -32t-12 -43.5v-356h68v332q0 4 0.5 8.5t2.5 8.5t4.5 7.5t5.5 6.5t6.5 5t7.5 4t8.5 2.5t8.5 0.5h800q19 0 32 -12.5t13 -30.5v-767q0 -18 -13 -31t-32 -13h-801q-19 0 -32 13t-13 31v264h260l46 142l66 -258q4 -17 15.5 -25
t25.5 -8q8 0 15.5 3t14.5 11.5t10 20.5l78 386l57 -238h175q32 0 32 31q0 17 -8 26.5t-24 9.5h-113l-83 345q-4 17 -16 25t-25.5 8t-25 -9t-14.5 -26l-78 -386l-55 219q-4 16 -15.5 24t-23.5 9q-8 0 -16 -2.5t-15.5 -9.5t-10.5 -18l-68 -212h-338v-68h68v-289
q0 -36 26 -61.5t63 -25.5h846q15 0 28 4.5t24 12.5t19 18.5t12 24t4 27.5v816q0 12 -3 23t-8.5 20.5t-13.5 17.5t-17.5 14t-21 9t-23.5 3z" />
    <glyph glyph-name="uniE631" unicode="&#xe631;" 
d="M804 304l-75 -127l-135 264l-155 -299l-145 247l-44 -92h-128q11 -12 23 -23l3 -3l364 -364l374 374l3 3q10 10 18 20h-103zM228 333l63 132l146 -250l157 303l138 -267l52 88h147q27 52 27 114q0 100 -70.5 170.5t-170.5 70.5q-32 0 -62.5 -8.5t-57 -23.5t-48 -36.5
t-37.5 -47.5q-33 53 -87.5 84.5t-118.5 31.5q-100 0 -170.5 -70.5t-70.5 -170.5q0 -32 8.5 -62.5t23.5 -57.5h131z" />
    <glyph glyph-name="uniE632" unicode="&#xe632;" 
d="M538 687q-5 4 -10 5q-6 0 -11 -5l-220 -207q-2 -2 -1 -5t5 -3h142v-211q0 -6 4.5 -10.5t11.5 -4.5h138q7 0 11.5 4.5t4.5 10.5v211h142q3 0 4.5 3t-1.5 5zM946 180l-136 94h-85l142 -115l-156 2q-3 0 -7 -2.5t-6 -5.5l-43 -105h-254l-43 105q-2 3 -6 5.5t-8 2.5h-155
l141 113h-84l-136 -94q-16 -9 -24 -28.5t-4 -36.5l25 -138q4 -17 20.5 -29.5t35.5 -12.5h730q12 0 24 6t20.5 15.5t11.5 20.5l25 138q4 17 -4.5 36.5t-23.5 28.5z" />
  </font>
</defs>
</svg>
